<?xml version="1.0" encoding="UTF-8"?>
<svg id="Capa_2" data-name="Capa 2" xmlns="http://www.w3.org/2000/svg" viewBox="0 0 541.29 62.44">
  <defs>
    <style>
      .cls-1 {
        fill: #e9bab2;
      }
    </style>
  </defs>
  <g id="Capa_1-2" data-name="Capa 1">
    <g>
      <path class="cls-1" d="M19.7,53.65l-3.41,7.42H0v-2.13L27.38.77h7.17l27.12,58.17v2.13h-16.12l-3.5-7.42h-22.35ZM24.74,40.6h12.37l-6.23-14.42-6.14,14.42Z"/>
      <path class="cls-1" d="M101.25,61.07v-23.88h-18.51v23.88h-15.61V1.36h15.61v21.58h18.51V1.36h15.61v59.71h-15.61Z"/>
      <path class="cls-1" d="M157.03,62.18c-15.78,0-30.54-10.24-30.54-30.96S141.76.17,157.28.17s30.45,10.41,30.45,31.05c0,18.25-12.62,30.96-30.71,30.96ZM157.11,47.42c7.42,0,15.01-5.54,15.01-16.21s-7.42-16.21-14.84-16.21-15.18,5.29-15.18,16.21,7.34,16.21,15.01,16.21Z"/>
      <path class="cls-1" d="M248.04,58.77v2.22h-16.55l-10.24-18.68h-8.19v18.68h-15.61V1.28c8.87,0,17.49-.08,26.27,0,14.42,0,21.5,10.66,21.5,21.15-.09,6.82-2.99,13.39-8.87,17.4l11.69,18.94ZM223.64,29.6c4.35,0,6.48-3.75,6.48-7.51s-2.05-7.25-6.48-7.25h-10.83v14.76h10.83Z"/>
      <path class="cls-1" d="M307.4,58.77v2.22h-16.55l-10.24-18.68h-8.19v18.68h-15.61V1.28c8.87,0,17.49-.08,26.27,0,14.42,0,21.5,10.66,21.5,21.15-.09,6.82-2.99,13.39-8.87,17.4l11.69,18.94ZM283.01,29.6c4.35,0,6.48-3.75,6.48-7.51s-2.05-7.25-6.48-7.25h-10.83v14.76h10.83Z"/>
      <path class="cls-1" d="M328.39,53.65l-3.41,7.42h-16.29v-2.13L336.06.77h7.17l27.12,58.17v2.13h-16.12l-3.5-7.42h-22.35ZM333.42,40.6h12.37l-6.23-14.42-6.14,14.42Z"/>
      <path class="cls-1" d="M398.67,1.45c19.45,0,29.43,14.84,29.43,29.51.26,15.01-9.64,30.11-29.43,30.11h-22.77V1.45h22.77ZM398.5,47c9.47,0,13.99-7.93,13.99-15.87s-4.78-15.69-13.99-15.69h-6.99v31.56h6.99Z"/>
      <path class="cls-1" d="M448.57,53.65l-3.41,7.42h-16.29v-2.13L456.25.77h7.17l27.12,58.17v2.13h-16.12l-3.5-7.42h-22.35ZM453.6,40.6h12.37l-6.23-14.42-6.14,14.42Z"/>
      <path class="cls-1" d="M507.25,42.73c0,4.09,4.69,6.14,9.47,6.14,4.44,0,9.13-2.05,9.13-5.63,0-5.71-6.65-5.97-11-6.23-10.92-.68-21.84-5.03-21.84-17.49s11-19.53,23.2-19.53c11.51,0,23.2,6.57,22.94,19.53h-14.59c-.08-4.09-3.92-5.8-8.1-5.8-3.5,0-8.1.94-8.1,5.46,0,4.01,3.41,4.95,9.13,5.54,12.71,1.11,23.8,4.09,23.8,18.59,0,12.54-12.2,19.11-24.4,19.11s-24.74-6.31-24.48-19.7h14.84Z"/>
    </g>
  </g>
</svg>