<?xml version="1.0" encoding="UTF-8"?>
<svg id="Capa_2" data-name="Capa 2" xmlns="http://www.w3.org/2000/svg" viewBox="0 0 424.13 48.92">
  <defs>
    <style>
      .cls-1 {
        fill: #c4484f;
      }
    </style>
  </defs>
  <g id="Capa_1-2" data-name="Capa 1">
    <g>
      <path class="cls-1" d="M15.44,42.04l-2.67,5.81H0v-1.67L21.45.6h5.61l21.25,45.58v1.67h-12.63l-2.74-5.81H15.44ZM19.38,31.81h9.69l-4.88-11.3-4.81,11.3Z"/>
      <path class="cls-1" d="M79.33,47.85v-18.71h-14.5v18.71h-12.23V1.07h12.23v16.91h14.5V1.07h12.23v46.79h-12.23Z"/>
      <path class="cls-1" d="M123.04,48.72c-12.36,0-23.93-8.02-23.93-24.26S111.08.13,123.24.13s23.86,8.15,23.86,24.33c0,14.3-9.89,24.26-24.06,24.26ZM123.11,37.16c5.81,0,11.76-4.34,11.76-12.7s-5.81-12.7-11.63-12.7-11.9,4.14-11.9,12.7,5.75,12.7,11.76,12.7Z"/>
      <path class="cls-1" d="M194.35,46.05v1.74h-12.97l-8.02-14.64h-6.42v14.64h-12.23V1c6.95,0,13.7-.07,20.59,0,11.3,0,16.84,8.35,16.84,16.57-.07,5.35-2.34,10.49-6.95,13.63l9.16,14.84ZM175.24,23.19c3.41,0,5.08-2.94,5.08-5.88s-1.6-5.68-5.08-5.68h-8.49v11.56h8.49Z"/>
      <path class="cls-1" d="M240.87,46.05v1.74h-12.97l-8.02-14.64h-6.42v14.64h-12.23V1c6.95,0,13.7-.07,20.59,0,11.3,0,16.84,8.35,16.84,16.57-.07,5.35-2.34,10.49-6.95,13.63l9.16,14.84ZM221.76,23.19c3.41,0,5.08-2.94,5.08-5.88s-1.6-5.68-5.08-5.68h-8.49v11.56h8.49Z"/>
      <path class="cls-1" d="M257.31,42.04l-2.67,5.81h-12.77v-1.67L263.33.6h5.61l21.25,45.58v1.67h-12.63l-2.74-5.81h-17.51ZM261.26,31.81h9.69l-4.88-11.3-4.81,11.3Z"/>
      <path class="cls-1" d="M312.38,1.14c15.24,0,23.06,11.63,23.06,23.13.2,11.76-7.55,23.59-23.06,23.59h-17.85V1.14h17.85ZM312.25,36.83c7.42,0,10.96-6.22,10.96-12.43s-3.74-12.3-10.96-12.3h-5.48v24.73h5.48Z"/>
      <path class="cls-1" d="M351.48,42.04l-2.67,5.81h-12.77v-1.67L357.5.6h5.61l21.25,45.58v1.67h-12.63l-2.74-5.81h-17.51ZM355.43,31.81h9.69l-4.88-11.3-4.81,11.3Z"/>
      <path class="cls-1" d="M397.47,33.48c0,3.21,3.68,4.81,7.42,4.81,3.48,0,7.15-1.6,7.15-4.41,0-4.48-5.21-4.68-8.62-4.88-8.55-.53-17.11-3.94-17.11-13.7s8.62-15.31,18.18-15.31c9.02,0,18.18,5.15,17.98,15.31h-11.43c-.07-3.21-3.07-4.55-6.35-4.55-2.74,0-6.35.74-6.35,4.28,0,3.14,2.67,3.88,7.15,4.34,9.96.87,18.65,3.21,18.65,14.57,0,9.83-9.56,14.97-19.12,14.97s-19.38-4.95-19.18-15.44h11.63Z"/>
    </g>
  </g>
</svg>