<?xml version="1.0" encoding="UTF-8"?>
<svg xmlns="http://www.w3.org/2000/svg" version="1.1" viewBox="0 0 98.9 98.6">
  <defs>
    <style>
      .cls-1 {
        fill: #c4484f;
      }
    </style>
  </defs>
  <!-- Generator: Adobe Illustrator 28.7.4, SVG Export Plug-In . SVG Version: 1.2.0 Build 166)  -->
  <g>
    <g id="Capa_1">
      <path class="cls-1" d="M49.6,0C22.4,0,.3,22.1.3,49.3s22.1,49.3,49.3,49.3,49.3-22.1,49.3-49.3S76.8,0,49.6,0ZM75,69.7c1.4,1.4,1.4,3.6,0,5,0,0,0,0,0,0-1.4,1.4-3.6,1.4-5,0,0,0,0,0,0,0l-20.4-20.4-20.4,20.4c-1.4,1.4-3.6,1.4-5,0,0,0,0,0,0,0-1.4-1.4-1.4-3.6,0-5,0,0,0,0,0,0l20.4-20.4-20.4-20.4c-1.4-1.4-1.4-3.6,0-5s3.6-1.4,5,0l20.4,20.4,20.4-20.4c1.4-1.4,3.6-1.4,5,0s1.4,3.6,0,5l-20.4,20.4,20.4,20.4Z"/>
    </g>
  </g>
</svg>