<?xml version="1.0" encoding="UTF-8"?>
<svg id="Capa_1" xmlns="http://www.w3.org/2000/svg" version="1.1" xmlns:xlink="http://www.w3.org/1999/xlink" viewBox="0 0 100 98.6">
  <!-- Generator: Adobe Illustrator 29.2.1, SVG Export Plug-In . SVG Version: 2.1.0 Build 116)  -->
  <defs>
    <style>
      .st0 {
        fill: #e9bab2;
      }
    </style>
  </defs>
  <path class="st0" d="M50,.4C22.9.4.9,22.4.9,49.5s22,49.1,49.1,49.1,49.1-22,49.1-49.1S77.1.4,50,.4ZM50,90.3c-22.5,0-40.8-18.3-40.8-40.8S27.5,8.7,50,8.7s40.8,18.3,40.8,40.8-18.3,40.8-40.8,40.8Z"/>
  <path class="st0" d="M33.6,37.6h32.9c1.6,0,2.9-1.6,2.9-3.6s-1.3-3.6-2.9-3.6h-32.9c-1.6,0-2.9,1.6-2.9,3.6,0,2,1.3,3.6,2.9,3.6Z"/>
  <path class="st0" d="M66.4,46.7h-32.8c-1.6,0-2.9,1.6-2.9,3.6s1.3,3.6,2.9,3.6h32.9c1.6,0,2.9-1.6,2.9-3.6,0-2-1.4-3.6-3-3.6Z"/>
  <path class="st0" d="M66.4,63.6h-32.8c-1.6,0-2.9,1.6-2.9,3.6s1.3,3.6,2.9,3.6h32.9c1.6,0,2.9-1.6,2.9-3.6s-1.4-3.6-3-3.6Z"/>
</svg>