<?xml version="1.0" encoding="UTF-8"?>
<svg id="Capa_2" data-name="Capa 2" xmlns="http://www.w3.org/2000/svg" viewBox="0 0 321.6 538.61">
  <defs>
    <style>
      .cls-1, .cls-2 {
        fill-rule: evenodd;
      }

      .cls-1, .cls-3 {
        fill: #121337;
      }

      .cls-2 {
        fill: #c4484f;
      }

      .cls-4 {
        fill: #fff;
      }
    </style>
  </defs>
  <g id="Capa_1-2" data-name="Capa 1">
    <path class="cls-2" d="M6.18,271.71c19.59-26.92,53.22,38.95,72.31,51.86-1.69-7.32-2.83-15.97-3.86-20.56-7.53-33.73-15.21-67.46-19.53-101.86-5.85-46.7-6.46-105.64,20.13-146.9,7.05-10.94,27.63-33.15,36.25-11.04,10.09-20.76,36.22-68.43,61.28-26.45,23.98-27.14,43.24-4.93,44.04,24.63.31,16.54-1.95,27.64-4.97,54.35,3.1-5.13,9.27-12.78,15.34-14,12.41-2.49,20.55,15.83,23.4,25.41,3.6,12.09,4.2,24.8,5.83,37.27,2.05,15.72,4.77,31.43,8.55,46.79,11.18,45.45,24.72,89.94,37.14,135,11.03,39.99,23.17,83.51,18.45,125.41-2.29,20.34-5.58,44.77-18.31,61.74-35.87,47.83-156.42,21.47-181.16-26.97-9.24-18.1-11.68-38.75-22.35-56.28-16.53-27.16-42.95-46.7-64.16-69.62-17.18-18.57-47.68-62.26-28.39-88.78Z"/>
    <path class="cls-3" d="M71.01,320.55c15.84,15.56,34.94,20.56,55.71,26.74,28.02,8.32,41.68,26.09,48.79,53.56,1.57,6.08,11.35,4.73,9.75-1.44-5.26-20.38-12.82-37.51-30.19-50.19-24.12-17.61-55.79-14.6-78.08-36.51-4.54-4.46-10.45,3.45-5.98,7.84h0Z"/>
    <path class="cls-3" d="M99.68,41c19.06,15.57,9.22,57.08,9.21,78.67-.02,31.78-.85,65.89,8.66,96.48,1.86,5.99,11.59,4.28,9.7-1.79-11.01-35.38-9.67-76.31-7.95-113.16,1.01-21.6,4.94-52.83-13.92-68.25-4.94-4.03-10.59,4.05-5.7,8.05h0Z"/>
    <path class="cls-3" d="M154.77,11.89c18.87,16.65,8.77,61.47,8.6,84.74-.25,34.26-1.32,71.04,7.94,103.94,1.82,6.45,11.51,4.54,9.68-1.99-10.71-38.06-9.09-82.19-7.11-121.93,1.16-23.29,5.3-56.99-13.38-73.47-4.89-4.31-10.57,4.45-5.73,8.71h0Z"/>
    <path class="cls-1" d="M139.92,286.61c-1.01,10.51-10.35,18.22-20.86,17.21-10.51-1.01-18.22-10.35-17.21-20.86,1.01-10.52,10.34-18.22,20.86-17.21,10.51,1.01,18.22,10.35,17.21,20.86Z"/>
    <path class="cls-1" d="M268.4,267.61c-1.01,10.52-10.35,18.22-20.86,17.21-10.51-1.01-18.22-10.35-17.22-20.86,1.01-10.52,10.35-18.22,20.87-17.21,10.51,1.01,18.22,10.35,17.21,20.86Z"/>
    <path class="cls-1" d="M204.26,300.14c-3.22-15.98-26.41-17.2-35.79-6.41-4.49,5.17-12.7-1.58-8.2-6.76,15.9-18.31,49.52-12.83,54.57,12.15,1.35,6.72-9.24,7.66-10.58,1.01Z"/>
    <path class="cls-3" d="M207.75,91.27c-.12,17.9-.67,35.81-.09,53.7.59,18.15,2.89,36.16,6.79,53.89,1.14,5.16,9.04,2.97,7.9-2.18-3.76-17.06-5.87-34.27-6.5-51.72-.65-17.89-.03-35.81.09-53.7.04-5.28-8.16-5.28-8.2,0h0Z"/>
    <path class="cls-4" d="M66.11,352.77c-15.49-11.78-27.22-27.64-37.94-43.67-4.38-6.55-15.03-.41-10.61,6.2,11.99,17.93,25.06,34.95,42.34,48.08,2.68,2.03,6.87.42,8.41-2.21,1.84-3.15.46-6.38-2.21-8.41Z"/>
    <path class="cls-4" d="M80.22,366.67c-7.92,0-7.92,12.29,0,12.29s7.92-12.29,0-12.29Z"/>
    <path class="cls-4" d="M81.47,60.86c-5.07,8-9.19,16.47-12.09,25.5-2.43,7.57,9.44,10.78,11.85,3.27,2.58-8.04,6.33-15.44,10.85-22.56,4.26-6.71-6.37-12.87-10.61-6.2Z"/>
    <path class="cls-4" d="M70.39,104.24c-7.92,0-7.92,12.29,0,12.29s7.92-12.29,0-12.29Z"/>
    <path class="cls-4" d="M154.53,487.41c-14.54-10.32-17.32-31.44-25.65-46.13-3.91-6.89-14.52-.7-10.61,6.2,9.83,17.33,12.82,38.3,30.06,50.54,6.47,4.6,12.61-6.06,6.2-10.61Z"/>
    <path class="cls-4" d="M171.09,494.77c-7.93,0-7.93,12.29,0,12.29s7.92-12.29,0-12.29Z"/>
  </g>
</svg>