<?xml version="1.0" encoding="UTF-8"?>
<svg id="Capa_2" xmlns="http://www.w3.org/2000/svg" viewBox="0 0 427.17 564.3">
  <defs>
    <style>
      .cls-1 {
        fill-rule: evenodd;
      }

      .cls-1, .cls-2 {
        fill: #121337;
      }

      .cls-3 {
        fill: #fff;
      }

      .cls-4 {
        fill: #c4484f;
      }
    </style>
  </defs>
  <g id="Capa_1-2" data-name="Capa_1">
    <path class="cls-4" d="M419.46,319.65c-10.02-6.12-23.24,1.79-31.91,6.89-28.42,16.72-50.61,45.13-82.47,55.97-8,2.72-17.87,4.16-26.32,3-21.96-2.99-51.39-18.96-53.39-43.91-1.99-23.95,27.44-75.84,51.39-79.83,13.83-2.51,27.52,5.54,38.73,12.61,23.64,14.92,48.52,33.52,75.45,41.93,7.17,2.24,25.22,4.04,27.37-6.62,2.24-11.09-5.34-22.93-11.33-31.59-7.52-10.87-16.4-20.58-25.29-30.33-25.69-28.16-53.74-71.32-96.99-69.18-18.83.93-37.24,8.98-53.45,18.07-5.38,3.01-28.45,19.08-45.63,32.84-3.66-76.5-3.66-115.26-3.66-172.79,0-13.68,1.77-29.5-1.75-42.66-4.1-15.34-21.7-19.21-29.56-6.13-7.25,12.09-10.73,27.97-13.13,41.73-3.43,19.68-4.26,39.67-6.91,59.45-2.57,19.16-3.87,32.26-8.52,57.37-9.72-25.9-19.05-51.97-30.14-77.33-7.72-17.66-16.22-39.47-29.41-53.93-6.12-6.71-16.55-10.96-25.68-7.67-21.83,7.88-2.42,59.78,2.05,72.31,8.82,24.76,16.57,49.96,24.09,75.14.9,3.02,1.8,6.05,2.67,9.07.66,2.27,1.44,5.11,2.52,8.85-3.4-3.51-20.96-36.92-33.93-54.88-5.64-7.81-11.31-18.1-22.68-17.13-5.98.51-10.84,6.43-11.44,11.95-.87,7.99,1.97,16.74,4.15,24.32,5.73,19.96,14,39.34,21.75,58.55,6.27,15.53,13.09,31.07,18.2,47.04,15.97,49.89,48.89,95.79,51.89,149.68,1.26,22.59.77,45.14,1.3,67.74.63,26.98,1.51,41.1,25.65,59,25.64,19.01,66.73,29.6,97.79,23.28,36.94-7.52,57.45-24.49,78.47-53.07,12.31-16.74,24.87-38.39,40.61-52.04,14.97-12.97,115.42-115.75,79.5-137.71Z"/>
    <path class="cls-1" d="M50.38,71.52c7.73-10.82-.15-31.86-11.45-44.58-.69.16-1.38.35-2.06.6-15.64,5.64-10.12,33.86-4.08,54.03,6.58-.24,13.45-4.32,17.59-10.05Z"/>
    <path class="cls-1" d="M138.95,42.07c3.7,1.6,8.26,1.9,12.44.59,14.04-4.26,14.38-25.79,15.28-42.36-5.84-1.16-12.11,1.16-16,7.62-5.95,9.92-9.36,22.39-11.72,34.15Z"/>
    <path class="cls-1" d="M18.22,154.86c4.43-7.39-2.69-21.89-11.22-32.41-3.72,2.2-6.41,6.41-6.84,10.41-.87,7.99,1.97,16.74,4.15,24.32.72,2.53,1.49,5.03,2.29,7.54,4.55-1.72,8.96-5.71,11.63-9.86Z"/>
    <path class="cls-1" d="M404.03,305.02c4.22,3.28,9.49,6.43,13.81,6.25.2-.49.36-1.01.48-1.58,2.24-11.09-5.34-22.93-11.33-31.59-2.65-3.82-5.46-7.5-8.39-11.09-6.85,3.29-14.8,8.78-15.38,13.44-.83,8.33,14.98,19.98,20.81,24.56Z"/>
    <path class="cls-1" d="M422.54,322.04c-8.68,13.98-30.25,39.06-11.85,49.57.52.3,1.03.56,1.53.81,13.26-21.23,20.13-40.67,10.32-50.38Z"/>
    <path class="cls-2" d="M68.59,199.01c7.77,16.63,16.15,32.96,24.14,49.49,2.71,5.6,11.03.7,8.34-4.88-7.99-16.52-16.36-32.86-24.14-49.49-2.64-5.64-10.96-.74-8.34,4.87h0Z"/>
    <path class="cls-2" d="M114.41,159.15c2.36,19.04,3.54,38.15,3.62,57.34.03,6.23,9.69,6.23,9.66,0-.09-19.18-1.26-38.29-3.62-57.34-.75-6.1-10.42-6.17-9.65,0h0Z"/>
    <path class="cls-1" d="M166.07,460.96c12.15.15,21.36-9.32,21.64-21.26.13-5.35-8.17-5.58-8.29-.23-.18,7.61-5.45,13.03-13.12,13.2-7.52.17-12.3-5.14-11.8-12.5.37-5.34-7.93-5.55-8.29-.23-.82,11.99,8,20.87,19.86,21.02Z"/>
    <path class="cls-1" d="M281.38,463.97c14.72.18,25.87-11.29,26.22-25.75.15-6.48-9.89-6.76-10.05-.28-.22,9.22-6.59,15.77-15.89,15.98-9.11.2-14.9-6.22-14.29-15.14.44-6.47-9.6-6.72-10.05-.27-1,14.52,9.69,25.28,24.06,25.46Z"/>
    <path class="cls-1" d="M208.2,481.92c.23-8.33,5.07-14.48,13.76-14.63,8.41-.15,15.47,4.51,15.46,13.37,0,5.29,8.21,5.53,8.22.23.02-13.67-10.46-21.48-23.45-21.81-13.16-.35-21.86,10.11-22.2,22.61-.15,5.3,8.07,5.52,8.21.22Z"/>
    <path class="cls-3" d="M327.78,208.12c-16.8-10.08-34.01-19.23-54.2-15.72-19.77,3.44-36.94,15.6-54.77,24.05-7.27,3.45-.93,14.21,6.3,10.78,15.8-7.49,30.58-17.44,47.66-21.88,18.04-4.7,33.74,4.58,48.71,13.56,6.92,4.15,13.2-6.65,6.3-10.78Z"/>
    <path class="cls-3" d="M342.94,221.14c-8.05,0-8.05,12.49,0,12.49s8.05-12.49,0-12.49Z"/>
    <path class="cls-3" d="M206.42,233.35c-8.05,0-8.05,12.49,0,12.49s8.05-12.49,0-12.49Z"/>
    <path class="cls-3" d="M138.48,85.67c-.79,13.86-.83,27.74-.83,41.62,0,8.05,12.48,8.05,12.48,0,0-13.88.05-27.76.84-41.62.46-8.05-12.03-8-12.49,0Z"/>
    <path class="cls-3" d="M120.78,375.36c-4.06-21.45-14.43-42.54-28.24-59.36-2.16-2.63-6.6-2.23-8.83,0-2.58,2.58-2.16,6.21,0,8.83,12.46,15.16,21.39,34.59,25.03,53.85,1.5,7.9,13.53,4.55,12.04-3.32Z"/>
    <path class="cls-3" d="M118.09,396.59c-8.05,0-8.05,12.49,0,12.49s8.05-12.49,0-12.49Z"/>
    <path class="cls-3" d="M367.84,354.02c-10.84,9.1-21.03,20.01-34.26,25.66-3.13,1.34-3.8,5.88-2.24,8.54,1.88,3.21,5.41,3.58,8.54,2.24,14.14-6.05,25.19-17.88,36.78-27.61,6.18-5.18-2.71-13.97-8.83-8.83Z"/>
    <path class="cls-3" d="M386.13,339.42c-8.05,0-8.05,12.49,0,12.49s8.05-12.49,0-12.49Z"/>
  </g>
</svg>